<?xml version="1.0" encoding="utf-8"?>
<!-- Generator: Adobe Illustrator 27.0.0, SVG Export Plug-In . SVG Version: 6.00 Build 0)  -->
<svg version="1.1" id="Calque_1" xmlns="http://www.w3.org/2000/svg" xmlns:xlink="http://www.w3.org/1999/xlink" x="0px" y="0px"
	 viewBox="0 0 1080 402.5" style="enable-background:new 0 0 1080 402.5;" xml:space="preserve">
<style type="text/css">
	.st0{fill:#5B2884;}
	.st1{fill:#EC6419;}
	.st2{fill:#824D99;}
	.st3{fill:#C7287E;}
</style>
<g>
	<path class="st0" d="M153.24,144.41c-33.28,0-60.24,26.98-60.24,60.25s26.96,60.25,60.24,60.25s60.25-26.98,60.25-60.25
		S186.52,144.41,153.24,144.41z M169.11,233.94c-3.99,1.73-8.39,2.69-13.02,2.69c-18.05,0-32.68-14.63-32.68-32.68
		c0-18.05,14.63-32.68,32.68-32.68c4.63,0,9.03,0.96,13.02,2.7V233.94z"/>
</g>
<g>
	<path class="st0" d="M306.32,229.58c0.48,0,0.91,0.22,1.31,0.66l3.92,5.77c0.43,0.55,0.59,1.09,0.48,1.61
		c-0.12,0.52-0.46,0.99-1.01,1.43c-3.41,2.74-7.29,4.94-11.66,6.6c-4.36,1.67-9.14,2.5-14.33,2.5c-6.03,0-11.7-1.14-17.03-3.42
		c-5.33-2.28-9.98-5.38-13.94-9.31c-3.96-3.92-7.1-8.53-9.39-13.82c-2.3-5.29-3.45-10.95-3.45-16.98c0-6.06,1.15-11.73,3.45-17.01
		c2.3-5.27,5.43-9.86,9.39-13.77c3.96-3.9,8.61-6.98,13.94-9.25c5.33-2.26,11.01-3.39,17.03-3.39c5.19,0,9.97,0.83,14.33,2.5
		c4.36,1.66,8.29,3.86,11.77,6.6c0.67,0.55,0.99,1.09,0.95,1.61c-0.04,0.52-0.12,0.87-0.24,1.07l-4.16,5.95
		c-0.12,0.16-0.31,0.31-0.56,0.44c-0.26,0.14-0.54,0.21-0.86,0.21c-0.52,0-1.03-0.2-1.55-0.59c-2.85-2.22-5.89-3.95-9.1-5.2
		c-3.21-1.25-6.74-1.87-10.58-1.87c-4.56,0-8.84,0.84-12.84,2.53c-4.01,1.68-7.48,3.99-10.44,6.93c-2.95,2.93-5.28,6.39-6.99,10.38
		c-1.7,3.98-2.56,8.27-2.56,12.87c0,4.56,0.85,8.84,2.56,12.84c1.7,4,4.03,7.47,6.99,10.4c2.95,2.94,6.43,5.25,10.44,6.96
		c4,1.71,8.28,2.56,12.84,2.56c3.84,0,7.4-0.67,10.67-1.99c3.27-1.33,6.23-3,8.89-5.02C305.23,229.84,305.81,229.58,306.32,229.58z"
		/>
	<path class="st0" d="M334.39,187.75c2.28-5.29,5.4-9.91,9.36-13.85s8.59-7.06,13.88-9.34c5.29-2.28,10.95-3.42,16.97-3.42
		c6.03,0,11.68,1.14,16.95,3.42c5.27,2.28,9.86,5.39,13.76,9.34c3.9,3.94,6.97,8.56,9.22,13.85c2.24,5.29,3.36,10.95,3.36,16.98
		c0,6.03-1.12,11.67-3.36,16.95c-2.24,5.27-5.32,9.86-9.22,13.76c-3.91,3.9-8.49,6.99-13.76,9.25c-5.27,2.26-10.92,3.39-16.95,3.39
		c-6.02,0-11.68-1.13-16.97-3.39c-5.29-2.26-9.92-5.34-13.88-9.25c-3.96-3.9-7.09-8.49-9.36-13.76c-2.28-5.27-3.42-10.92-3.42-16.95
		C330.97,198.7,332.11,193.04,334.39,187.75z M344.58,217.51c1.67,3.96,3.96,7.42,6.9,10.38c2.93,2.95,6.38,5.27,10.34,6.96
		c3.96,1.69,8.23,2.53,12.78,2.53c4.6,0,8.85-0.84,12.76-2.53c3.9-1.68,7.3-4,10.19-6.96c2.9-2.95,5.15-6.41,6.78-10.38
		c1.62-3.96,2.44-8.22,2.44-12.78c0-4.6-0.81-8.89-2.44-12.87c-1.62-3.98-3.88-7.45-6.78-10.41c-2.89-2.95-6.29-5.28-10.19-6.98
		c-3.91-1.71-8.16-2.56-12.76-2.56c-4.56,0-8.82,0.85-12.78,2.56c-3.96,1.7-7.41,4.03-10.34,6.98c-2.94,2.95-5.23,6.42-6.9,10.41
		c-1.66,3.98-2.5,8.28-2.5,12.87C342.09,209.29,342.92,213.55,344.58,217.51z"/>
	<path class="st0" d="M503.9,226.43c0.59,0,1.09,0.28,1.48,0.83l5.77,9.75c0.55,0.67,0.76,1.26,0.63,1.75
		c-0.14,0.5-0.57,1.02-1.28,1.58c-3.25,2.42-6.89,4.34-10.91,5.77c-4.02,1.43-8.63,2.14-13.82,2.14c-6.06,0-11.75-1.14-17.06-3.42
		c-5.31-2.28-9.95-5.4-13.91-9.36c-3.96-3.96-7.1-8.59-9.39-13.88c-2.3-5.29-3.45-10.97-3.45-17.03c0-6.07,1.15-11.73,3.45-17.01
		c2.3-5.27,5.43-9.87,9.39-13.8c3.96-3.92,8.6-7.02,13.91-9.27c5.31-2.26,11-3.39,17.06-3.39c5.19,0,9.8,0.7,13.82,2.11
		c4.02,1.41,7.7,3.34,11.03,5.8c0.63,0.48,0.96,0.99,0.98,1.55s-0.07,0.99-0.27,1.31l-6.06,10.23c-0.28,0.44-0.73,0.65-1.37,0.65
		c-0.6,0-1.21-0.2-1.85-0.59c-2.69-1.66-5.31-2.95-7.85-3.87c-2.54-0.91-5.35-1.37-8.45-1.37c-3.85,0-7.41,0.71-10.7,2.14
		c-3.29,1.43-6.13,3.39-8.53,5.89c-2.4,2.5-4.28,5.42-5.65,8.77c-1.37,3.35-2.05,6.97-2.05,10.85c0,3.84,0.68,7.47,2.05,10.88
		c1.37,3.41,3.25,6.38,5.65,8.92c2.4,2.54,5.24,4.55,8.53,6.03c3.29,1.49,6.86,2.23,10.7,2.23c3.09,0,6.03-0.51,8.8-1.52
		c2.77-1.01,5.19-2.27,7.25-3.78C502.61,226.73,503.31,226.43,503.9,226.43z"/>
	<path class="st0" d="M534.94,187.69c2.28-5.29,5.4-9.91,9.37-13.85c3.96-3.94,8.59-7.05,13.88-9.33
		c5.29-2.28,10.95-3.42,16.98-3.42c6.03,0,11.68,1.14,16.98,3.42c5.29,2.28,9.9,5.39,13.82,9.33c3.92,3.95,7.02,8.56,9.28,13.85
		c2.26,5.29,3.39,10.95,3.39,16.98c0,6.03-1.13,11.68-3.39,16.98c-2.26,5.29-5.35,9.9-9.28,13.82c-3.92,3.92-8.53,7.02-13.82,9.3
		c-5.29,2.28-10.95,3.42-16.98,3.42c-6.03,0-11.68-1.14-16.98-3.42c-5.29-2.28-9.92-5.38-13.88-9.3c-3.96-3.92-7.09-8.53-9.37-13.82
		c-2.28-5.29-3.42-10.95-3.42-16.98C531.52,198.64,532.66,192.98,534.94,187.69z M550.28,215.46c1.37,3.35,3.26,6.26,5.68,8.74
		c2.42,2.48,5.26,4.43,8.53,5.86c3.27,1.43,6.83,2.14,10.67,2.14c3.84,0,7.4-0.71,10.67-2.14c3.27-1.43,6.1-3.38,8.5-5.86
		c2.4-2.48,4.27-5.39,5.62-8.74c1.35-3.35,2.02-6.95,2.02-10.79c0-3.84-0.67-7.44-2.02-10.79c-1.35-3.35-3.22-6.27-5.62-8.77
		c-2.4-2.5-5.23-4.46-8.5-5.89c-3.27-1.43-6.83-2.14-10.67-2.14c-3.85,0-7.4,0.71-10.67,2.14c-3.27,1.43-6.12,3.39-8.53,5.89
		c-2.42,2.5-4.31,5.42-5.68,8.77c-1.37,3.35-2.05,6.95-2.05,10.79C548.23,208.51,548.92,212.11,550.28,215.46z"/>
	<path class="st0" d="M645.89,164.65c0-0.75,0.21-1.34,0.62-1.75c0.42-0.42,0.94-0.63,1.58-0.63h12.25c1.47,0,2.2,0.79,2.2,2.38
		v66.65h35.97c1.59,0,2.38,0.73,2.38,2.2v11.3c0,1.51-0.8,2.26-2.38,2.26h-50.42c-1.47,0-2.2-0.75-2.2-2.26V164.65z"/>
	<path class="st0" d="M724.35,164.65c0-0.75,0.21-1.34,0.62-1.75c0.42-0.42,0.94-0.63,1.58-0.63h12.25c1.47,0,2.2,0.79,2.2,2.38
		v66.65h35.97c1.59,0,2.38,0.73,2.38,2.2v11.3c0,1.51-0.8,2.26-2.38,2.26h-50.42c-1.47,0-2.2-0.75-2.2-2.26V164.65z"/>
	<path class="st0" d="M830.33,164.47c0.6-1.47,1.55-2.2,2.85-2.2h9.52c1.35,0,2.32,0.73,2.91,2.2l32.17,80.15
		c0.32,0.8,0.32,1.4,0,1.81c-0.32,0.42-0.85,0.63-1.61,0.63h-12.48c-1.35,0-2.28-0.69-2.8-2.08l-5.53-13.67h-34.96l-5.47,13.62
		c-0.28,0.79-0.66,1.35-1.13,1.66c-0.47,0.32-1.05,0.48-1.72,0.48h-12.49c-0.75,0-1.28-0.21-1.58-0.63
		c-0.3-0.41-0.29-1.02,0.03-1.81L830.33,164.47z M837.94,184.21l-12.19,32.34h24.2L837.94,184.21z"/>
	<path class="st0" d="M900.94,164.53c0-1.51,0.73-2.26,2.2-2.26h36.81c3.25,0,6.28,0.62,9.1,1.84c2.81,1.23,5.26,2.91,7.34,5.02
		c2.08,2.12,3.72,4.62,4.9,7.49c1.19,2.87,1.78,5.98,1.78,9.3c0,3.25-0.54,6.22-1.61,8.92c-1.07,2.69-2.7,4.99-4.88,6.9
		c1.62,1.07,3.07,2.36,4.34,3.87c1.27,1.51,2.36,3.15,3.27,4.93c0.91,1.78,1.61,3.69,2.08,5.71c0.48,2.02,0.71,4.08,0.71,6.18
		c0,3.29-0.6,6.42-1.81,9.39c-1.21,2.97-2.86,5.59-4.96,7.85c-2.1,2.26-4.56,4.05-7.37,5.38c-2.82,1.33-5.85,1.99-9.1,1.99h-40.61
		c-1.47,0-2.2-0.75-2.2-2.26V164.53z M917.59,176.07v20.63h17.96c3.33,0,6-0.92,8-2.77c2-1.84,3-4.37,3-7.58
		c0-1.55-0.26-2.95-0.77-4.22c-0.52-1.27-1.25-2.35-2.2-3.24c-0.95-0.89-2.1-1.59-3.45-2.08c-1.35-0.5-2.83-0.74-4.46-0.74H917.59z
		 M917.59,209.84v23.31h21.64c1.74,0,3.29-0.34,4.64-1.01c1.35-0.67,2.48-1.55,3.39-2.62c0.91-1.07,1.6-2.28,2.05-3.63
		c0.45-1.35,0.68-2.69,0.68-4.04c0-1.71-0.31-3.29-0.92-4.76c-0.62-1.47-1.43-2.73-2.44-3.8c-1.01-1.07-2.18-1.91-3.51-2.53
		c-1.33-0.61-2.7-0.92-4.13-0.92H917.59z"/>
</g>
</svg>
